<mxfile host="app.diagrams.net" modified="2024-06-28T02:08:20.649Z" agent="Mozilla/5.0 (Windows NT 10.0; Win64; x64) AppleWebKit/537.36 (KHTML, like Gecko) Chrome/126.0.0.0 Safari/537.36" version="24.6.3" etag="SHjg2KXCzV0ERg1fpa5x" type="github">
  <diagram name="ページ1" id="5quB-IppeUH0EfmeDba7">
    <mxGraphModel>
      <root>
        <mxCell id="0" />
        <mxCell id="1" parent="0" />
      </root>
    </mxGraphModel>
  </diagram>
</mxfile>
